 <svg  version="1.0" xmlns="http://www.w3.org/2000/svg"  width="259.000000pt" height="259.000000pt" viewBox="0 0 259.000000 259.000000"  preserveAspectRatio="xMidYMid meet">  <g transform="translate(0.000000,259.000000) scale(0.100000,-0.100000)" fill="#e2b71d" stroke="none"> <path d="M982 2510 c-272 -136 -344 -477 -152 -718 20 -26 56 -58 79 -72 l42 -25 -3 -82 c-3 -75 -1 -83 18 -92 15 -6 23 -22 28 -51 4 -24 5 -45 2 -47 -3 -3 -58 -9 -123 -14 -241 -20 -499 22 -707 115 -33 15 -66 24 -73 22 -20 -8 -16 -64 8 -112 20 -41 56 -80 109 -116 l25 -16 -63 -65 -63 -64 195 -189 196 -190 -6 -49 c-13 -104 36 -186 117 -200 34 -6 47 -3 71 15 16 12 33 20 37 18 5 -2 135 -127 290 -279 l283 -276 177 181 c97 100 242 248 322 331 79 82 214 222 300 310 86 88 206 212 267 275 l111 115 -112 110 c-62 61 -173 169 -248 242 l-136 132 25 23 c46 43 149 183 181 245 19 39 36 95 45 150 20 122 30 253 19 253 -9 0 -34 -56 -66 -150 -9 -25 -19 -84 -22 -132 -7 -84 -8 -87 -55 -145 -84 -101 -231 -222 -381 -311 l-36 -22 -7 54 c-8 68 -44 186 -56 186 -15 0 -12 -22 7 -42 10 -11 12 -18 4 -18 -6 0 -16 11 -22 24 -9 20 -8 33 10 68 11 24 23 59 26 78 5 29 0 23 -25 -29 -17 -36 -32 -67 -35 -69 -2 -3 -29 7 -58 22 -30 14 -61 26 -69 26 -23 0 -48 34 -48 66 0 16 12 64 27 106 26 72 26 78 11 95 -16 18 -16 19 4 32 19 12 20 15 7 25 -8 6 -20 30 -27 53 -8 28 -25 52 -51 72 -85 68 -191 22 -225 -97 -20 -72 -20 -72 0 -72 13 0 14 -3 5 -14 -15 -18 -1 -79 24 -106 9 -10 18 -34 22 -54 6 -36 -12 -96 -28 -96 -5 0 -27 -11 -49 -25 -52 -33 -64 -32 -94 8 -55 72 -76 135 -76 232 0 78 4 98 29 150 51 109 147 183 267 204 62 12 143 3 185 -19 11 -6 25 -10 31 -8 6 2 -10 14 -35 26 -226 106 -492 -11 -561 -247 -21 -73 -20 -146 3 -222 28 -88 106 -197 128 -176 2 2 -8 19 -22 38 -14 19 -39 62 -56 97 -66 133 -37 303 69 411 13 13 26 20 30 17 3 -4 2 -10 -3 -14 -15 -11 -65 -80 -65 -90 0 -5 -8 -24 -17 -42 -12 -25 -16 -59 -16 -125 0 -77 4 -99 28 -150 16 -33 27 -63 27 -67 -1 -5 2 -8 8 -8 5 0 10 -6 10 -13 0 -13 58 -52 66 -44 3 3 39 -13 80 -34 69 -36 81 -39 157 -39 86 0 151 13 163 32 5 7 2 9 -9 5 -8 -3 -32 -9 -51 -12 l-35 -7 34 37 c30 31 39 36 65 30 16 -4 32 -11 35 -15 11 -19 -21 -50 -80 -77 -53 -25 -72 -28 -160 -28 -55 0 -112 3 -127 7 -23 7 -26 5 -22 -15 3 -14 -1 -11 -11 11 -8 17 -20 32 -27 32 -6 0 -26 12 -45 26 -27 21 -37 23 -48 14 -26 -22 -16 -36 48 -69 82 -42 104 -46 222 -46 118 1 172 21 268 100 32 26 61 44 65 41 12 -13 -32 -78 -83 -122 -67 -59 -148 -98 -199 -97 -90 3 -110 2 -121 -7 -12 -10 -84 -15 -105 -7 -8 3 -37 13 -63 23 -31 11 -52 25 -57 39 -5 12 -31 44 -59 71 -28 27 -51 54 -51 60 0 7 -7 14 -15 17 -12 5 -53 82 -60 112 -1 5 -7 30 -14 55 -13 43 -10 164 3 177 12 13 17 -6 21 -79 3 -68 12 -99 52 -184 20 -44 86 -114 106 -114 13 0 5 15 -31 59 -71 89 -97 164 -97 282 0 90 3 100 38 171 52 106 132 183 222 216 24 8 26 11 9 11 -12 1 -58 -17 -102 -39z m370 -165 c4 15 6 13 8 -10 l3 -30 6 35 7 35 22 -35 c20 -33 21 -36 5 -47 -15 -12 -15 -13 5 -13 12 0 22 -4 22 -8 0 -5 -36 -7 -80 -4 -43 2 -87 1 -97 -3 -10 -5 -26 -10 -35 -11 -10 -2 -21 -5 -25 -6 -4 -2 -8 2 -8 7 0 6 6 9 13 9 6 -1 12 2 12 7 0 5 -7 9 -16 9 -11 0 -14 6 -9 23 18 58 55 84 55 37 0 -10 5 -22 10 -25 12 -8 12 -8 1 33 -12 39 1 43 17 5 l12 -28 -5 32 c-4 28 -1 32 23 35 23 3 29 -2 38 -32 9 -29 12 -31 16 -15z m47 -107 c22 -20 23 -27 18 -96 -5 -68 -8 -76 -38 -103 -37 -33 -102 -41 -113 -14 -3 8 -12 15 -20 15 -24 0 -36 32 -43 115 -6 72 -5 75 16 75 11 0 21 4 21 9 0 5 19 7 43 5 33 -3 37 -2 17 5 -21 8 -17 9 26 10 39 1 56 -4 73 -21z m-11 -288 c-3 -30 -1 -36 9 -28 21 17 16 -16 -4 -35 -29 -25 -84 -30 -131 -12 -23 10 -42 21 -42 25 0 15 20 22 33 12 9 -8 12 -2 12 21 0 28 4 32 45 44 24 7 51 20 60 28 13 14 15 14 18 -1 2 -9 2 -33 0 -54z m-173 -82 c15 -22 14 -23 -6 -26 -22 -4 -62 25 -53 39 10 17 43 9 59 -13z m403 -101 c3 -12 -3 -17 -22 -17 -25 0 -35 18 -19 34 12 12 38 2 41 -17z m322 -37 c-6 -11 -20 -25 -32 -31 -12 -7 -38 -27 -59 -46 -35 -33 -50 -44 -170 -124 -50 -33 -271 -154 -276 -151 -2 1 -23 -7 -49 -18 -25 -11 -51 -20 -58 -20 -7 0 -16 -4 -21 -9 -14 -12 -111 -39 -182 -50 -32 -5 -71 -12 -88 -16 -165 -37 -467 -25 -640 25 -22 6 -54 15 -71 18 -39 9 -128 88 -150 135 -10 20 -15 39 -13 42 3 2 54 -13 114 -34 140 -49 237 -69 400 -80 131 -9 331 -1 356 15 19 12 38 14 44 5 7 -13 185 25 280 60 28 10 66 21 85 25 47 9 174 71 228 111 18 14 36 23 39 20 10 -11 85 24 160 75 67 45 97 64 111 67 1 1 -2 -8 -8 -19z m-303 -36 c22 -21 15 -34 -19 -35 -24 -1 -27 -3 -10 -6 28 -6 19 -23 -12 -23 -13 0 -35 -9 -50 -21 -23 -18 -30 -19 -61 -9 -45 15 -50 24 -29 55 19 30 30 31 58 8 21 -18 21 -18 2 4 -15 19 -17 25 -6 38 10 12 24 14 64 9 28 -4 56 -13 63 -20z m518 -226 c119 -117 224 -217 232 -222 12 -6 -10 -34 -98 -125 -168 -172 -299 -309 -554 -576 -300 -315 -429 -445 -441 -445 -5 1 -128 117 -274 260 l-265 259 34 35 c29 30 42 36 77 36 36 0 51 7 101 49 74 62 112 81 161 81 24 0 49 8 65 20 14 11 32 20 40 20 8 0 25 8 38 18 13 11 36 22 52 26 45 11 105 73 139 145 28 58 32 79 36 174 3 69 1 107 -6 107 -5 0 -24 -35 -41 -77 -23 -58 -31 -94 -31 -140 0 -57 -2 -63 -29 -82 -16 -12 -38 -21 -50 -21 -11 0 -25 -9 -31 -20 -7 -13 -21 -20 -38 -20 -16 0 -37 -7 -48 -15 -10 -8 -35 -15 -55 -15 -40 0 -87 -28 -156 -91 -37 -34 -49 -39 -89 -39 -37 0 -58 -8 -106 -39 -103 -70 -188 -63 -231 19 -21 41 -17 122 13 225 19 67 11 97 -17 60 -10 -15 -48 -124 -70 -204 -2 -8 -66 48 -161 140 -86 84 -159 157 -161 162 -1 4 18 29 43 55 l46 46 47 -13 c160 -44 207 -50 396 -51 282 0 460 35 693 136 167 72 361 191 469 288 28 25 50 45 51 46 1 0 99 -96 219 -212z m-775 136 c74 -14 143 -29 153 -33 12 -4 -11 -16 -77 -40 l-94 -33 -54 40 c-58 45 -104 66 -125 58 -13 -5 -18 15 -6 27 12 13 67 7 203 -19z m240 -3 c0 -9 -35 -21 -60 -20 -8 0 -1 7 15 14 36 17 45 18 45 6z m-530 -31 c-37 -31 -35 -40 4 -15 12 8 43 18 69 21 42 6 52 3 107 -32 33 -22 60 -42 60 -47 0 -4 -11 -12 -24 -17 -35 -13 -268 -61 -273 -56 -5 5 -33 107 -33 123 0 10 90 52 115 52 6 0 -6 -13 -25 -29z m88 -687 c-3 -19 -72 -42 -85 -30 -12 13 26 43 57 45 25 2 31 -1 28 -15z m-550 -184 c16 -12 34 -14 72 -9 28 4 53 3 56 -1 8 -14 -30 -67 -60 -82 -53 -27 -92 -28 -119 -3 -35 33 -47 59 -47 105 0 66 7 72 44 37 18 -17 42 -38 54 -47z m292 58 c0 -22 -45 -41 -66 -29 -17 10 -16 12 16 26 44 19 50 19 50 3z"/> <path d="M1230 2210 c-11 -7 -4 -10 25 -10 29 0 36 3 25 10 -8 5 -19 10 -25 10 -5 0 -17 -5 -25 -10z"/> <path d="M1330 2210 c0 -5 18 -10 41 -10 24 0 38 4 34 10 -3 6 -22 10 -41 10 -19 0 -34 -4 -34 -10z"/> <path d="M1230 2180 c0 -5 11 -10 25 -10 14 0 25 5 25 10 0 6 -11 10 -25 10 -14 0 -25 -4 -25 -10z"/> <path d="M1280 2109 c0 -10 40 -19 56 -12 25 9 15 19 -21 19 -19 0 -35 -3 -35 -7z"/> <path d="M1270 2083 c0 -15 34 -43 53 -43 9 0 17 5 17 10 0 6 -8 10 -17 10 -9 0 -25 7 -35 17 -10 9 -18 12 -18 6z"/> <path d="M1560 1103 c-27 -82 -34 -121 -41 -237 -12 -198 -21 -221 -135 -333 -86 -85 -92 -93 -67 -93 43 1 108 34 136 71 78 105 110 225 137 509 6 63 14 130 17 148 11 66 -15 29 -47 -65z"/> <path d="M885 1008 c-16 -24 -31 -45 -32 -47 -2 -2 -11 3 -20 12 -10 8 -30 20 -45 26 -27 10 -30 7 -83 -64 -55 -75 -65 -92 -44 -79 6 3 29 -2 51 -12 l41 -18 36 42 36 42 38 -20 39 -21 39 43 c50 55 56 74 32 107 -31 41 -55 38 -88 -11z m43 -51 c-7 -15 -21 -27 -30 -27 -23 0 -23 6 3 42 26 35 45 24 27 -15z m-131 -13 c5 -14 -46 -64 -63 -64 -21 0 -17 12 14 48 26 31 42 36 49 16z"/> <path d="M1663 873 c-8 -21 -21 -50 -29 -65 -13 -26 -12 -29 26 -64 60 -55 60 -68 4 -126 -27 -27 -64 -58 -82 -69 -47 -30 -29 -42 30 -19 85 32 141 100 158 192 13 69 -1 118 -45 157 -20 17 -38 31 -41 31 -3 0 -12 -17 -21 -37z m69 -75 c4 -21 4 -46 0 -58 -7 -18 -9 -17 -36 16 -25 31 -27 39 -17 61 16 36 43 26 53 -19z"/> <path d="M1344 833 c-36 -91 -85 -180 -114 -208 -17 -16 -68 -55 -113 -85 -64 -43 -83 -61 -85 -82 -4 -33 22 -43 76 -28 79 21 172 151 236 329 41 115 40 111 25 111 -5 0 -17 -17 -25 -37z m-218 -349 c-11 -7 -22 -11 -25 -8 -3 3 3 12 13 20 11 7 22 11 25 8 3 -3 -3 -12 -13 -20z"/> </g> </svg> 